<?xml version="1.0" encoding="UTF-8"?>
<svg xmlns="http://www.w3.org/2000/svg"
     viewBox="0 0 1200 1200"
     preserveAspectRatio="xMidYMid meet"
     role="img"
     aria-labelledby="logo-title">
  <title id="logo-title">Nashi Timer</title>
  <g fill="#000" transform="translate(100 145) scale(.86)">
    <g fill="none" stroke="#000" stroke-linecap="round" stroke-width="58.05">
      <path d="M1.10,387.74 A610,610 0 0 1 332.51,-7.23"/>
      <path d="M1179.52,387.74 A610,610 0 0 1 1089.99,895.50"/>
      <path d="M67,849 L197,1002"/>
    </g>
    <path d="M590.31,1070.54c-70.85,0-139.6-13.88-204.33-41.26-62.51-26.44-118.65-64.29-166.84-112.48-48.2-48.2-86.04-104.33-112.48-166.84-27.38-64.73-41.26-133.48-41.26-204.33s13.88-139.6,41.26-204.33c26.44-62.51,64.28-118.65,112.48-166.84,48.2-48.2,104.33-86.04,166.84-112.48,64.73-27.38,133.48-41.26,204.33-41.26s139.6,13.88,204.33,41.26c62.51,26.44,118.65,64.28,166.84,112.48s86.04,104.33,112.48,166.84c27.38,64.73,41.26,133.48,41.26,204.33s-13.88,139.6-41.26,204.33c-26.44,62.51-64.29,118.64-112.48,166.84s-104.33,86.04-166.84,112.48c-64.73,27.38-133.48,41.26-204.33,41.26ZM590.31,78.76c-257.43,0-466.86,209.43-466.86,466.86s209.43,466.86,466.86,466.86,466.86-209.43,466.86-466.86S847.74,78.76,590.31,78.76Z"/>
    <path d="M824.12,808.46c-7.43,0-14.86-2.83-20.53-8.5l-233.81-233.81c-5.45-5.44-8.5-12.83-8.5-20.53V207.02c0-16.04,13-29.03,29.03-29.03s29.03,13,29.03,29.03v326.58l225.31,225.31c11.34,11.34,11.34,29.72,0,41.06-5.67,5.67-13.1,8.5-20.53,8.5Z"/>
  </g>
</svg>
